<svg width="209" height="386" viewBox="0 0 209 386" fill="none" xmlns="http://www.w3.org/2000/svg">
<path d="M41.3783 223.715C30.9193 209.928 19.0343 196.3 10.0015 181.404C7.94144 178.076 -2.35908 157 6.19824 159.535C15.0725 162.229 22.3621 178.076 26.0069 185.841C29.6517 193.606 33.4549 201.371 36.9413 209.294C38.3675 212.622 40.269 216.267 41.2199 219.912C41.2199 220.387 42.1706 224.666 41.3783 223.715C42.8045 225.458 33.6133 213.415 41.3783 223.715Z" fill="#74A773"/>
<path d="M92.4098 336.862C93.836 312.775 94.3113 288.846 93.6774 264.759C93.0436 240.513 91.3005 216.426 88.4481 192.338C85.7541 169.202 82.1093 146.065 77.3552 123.246C72.9181 102.328 67.3717 81.5684 59.7652 61.6013C52.4756 42.4266 43.1259 23.7272 31.3992 6.92951C29.973 4.86941 28.3883 2.65085 26.8036 0.590752C25.6943 -0.835469 23.3173 0.590791 24.4266 2.01701C36.7871 18.4978 46.6122 36.7217 54.5357 55.8965C62.4591 75.3882 68.3224 95.8306 73.0765 116.273C78.1475 138.776 81.9508 161.595 84.8032 184.415C87.8141 208.185 89.7159 232.114 90.6667 256.043C91.459 279.972 91.3005 303.9 90.1912 327.671C90.0327 330.682 89.8742 333.693 89.7157 336.704C89.5572 338.605 92.4098 338.605 92.4098 336.862Z" fill="#DDB282"/>
<path d="M50.2538 18.0221C58.3357 33.869 55.9586 40.5248 50.4122 44.0111C44.8658 47.4974 38.21 45.9127 30.2865 30.5412C22.3631 15.1697 24.5817 8.03858 30.1281 4.55226C35.5161 1.22441 42.4888 3.12604 50.2538 18.0221Z" fill="#F7E0A2"/>
<path d="M49.6188 37.8306C37.2582 33.7104 28.384 21.9837 27.2747 7.24609C24.1053 11.3663 23.9467 18.3389 30.2855 30.5411C38.2089 45.9125 44.8647 47.4972 50.4112 44.0109C52.4713 42.7432 54.056 41 55.0068 38.4645C53.1052 38.4645 51.362 38.306 49.6188 37.8306Z" fill="#F7E0A2"/>
<path d="M93.0366 334.326C91.9273 326.403 91.9273 318.321 92.2442 310.398C92.7196 299.78 93.9873 289.163 95.572 278.704C99.3753 253.666 105.556 228.944 113.638 205.016C119.659 187.267 126.949 169.994 134.872 153.038C142.479 136.716 151.036 120.869 160.386 105.497C173.063 84.7377 187.009 64.7706 201.746 45.2789C203.965 42.268 206.183 39.4156 208.402 36.4047C209.511 34.9785 207.134 33.5522 206.025 34.9784C190.495 55.4209 175.44 76.3388 161.654 98.0491C151.828 113.896 142.637 130.06 134.555 146.858C126.949 162.863 119.818 179.185 113.796 195.824C104.922 220.07 98.266 245.425 93.8289 270.939C91.9273 281.873 90.5009 292.807 89.7085 303.742C89.0747 312.458 88.7578 321.173 89.5501 329.889C89.7086 331.632 89.8671 333.376 90.184 335.119C90.501 336.862 93.195 336.07 93.0366 334.326Z" fill="#DDB282"/>
<path d="M180.198 52.4101C171.323 67.7816 173.542 74.5958 178.771 78.3991C184.159 82.2024 190.973 81.093 199.531 66.197C208.088 51.3009 206.186 44.0113 200.957 40.208C195.569 36.4048 188.596 37.9895 180.198 52.4101Z" fill="#F7E0A2"/>
<path d="M179.88 72.2191C192.399 68.8913 201.907 57.4815 203.651 42.9023C206.503 47.181 206.345 54.1536 199.53 66.0388C190.973 80.9349 184.159 82.0442 178.771 78.2409C176.711 76.8147 175.126 74.913 174.492 72.3775C176.235 72.6945 178.137 72.536 179.88 72.2191Z" fill="#F7E0A2"/>
<path d="M88.446 338.763C88.2875 333.851 87.6536 328.938 86.3858 324.184C84.0088 314.518 79.8886 305.643 74.6591 297.403C63.7247 279.971 48.5117 263.649 30.2878 256.201C26.0091 254.458 21.7305 253.032 17.2934 252.556C15.2333 252.239 8.73606 251.13 6.9929 253.19C5.56668 254.933 7.46838 254.775 9.05307 255.567C12.2225 257.152 15.3917 259.054 18.2442 261.114C45.8178 279.813 78.4623 301.682 85.7519 338.605H88.446V338.763Z" fill="#5C975A"/>
<path d="M87.3336 335.752C85.432 300.731 75.924 267.135 65.6235 234.174C60.8694 219.119 56.2738 204.065 50.5689 189.485C43.5963 171.895 34.8806 154.781 26.4817 137.983C22.52 130.06 18.3997 122.136 13.9626 114.53C11.9025 111.043 9.84242 107.715 7.62386 104.388C6.83151 103.12 2.55273 98.8413 2.55273 97.415C2.55273 95.1965 4.4544 96.9396 5.56368 97.7319C8.41613 99.6335 11.1101 102.011 13.6456 104.388C19.8259 110.251 25.2138 116.907 30.2848 123.879C40.9022 138.775 49.935 155.256 56.4322 172.846C62.771 190.119 67.3666 208.343 72.1207 226.092C77.6671 247.01 82.5796 268.086 85.5905 289.479C87.0167 299.146 87.9676 308.813 88.443 318.479C88.6015 322.599 88.7599 326.72 88.6015 330.84C88.6015 331.791 89.0769 334.643 88.443 335.435C88.6015 335.435 87.4921 337.812 87.3336 335.752Z" fill="#5C975A"/>
<path d="M88.6033 338.764H90.6635C90.505 337.179 90.3464 335.595 90.3464 334.327C90.0295 327.513 89.3957 320.54 88.4448 313.884C86.2263 299.147 82.423 284.726 76.5597 271.098C65.7838 246.218 50.0953 223.557 27.7511 210.404C25.691 209.136 0.969886 197.093 0.0190716 200.737C-0.456335 202.481 8.10099 207.71 9.52721 208.661C13.9643 212.147 18.2431 215.792 22.5218 219.595C41.0627 236.235 58.8111 254.617 70.5378 277.912C80.2044 297.087 85.4339 317.529 88.6033 338.764Z" fill="#74A773"/>
<path d="M90.9791 338.764H92.5638C92.5638 335.911 92.5638 333.059 92.5638 330.207C92.5638 322.125 92.4054 314.043 92.247 305.961C91.7715 287.737 90.9791 269.671 89.5529 251.447C86.8589 218.169 83.531 184.891 73.0721 153.355C70.695 146.066 68.0011 138.935 64.8317 131.962C64.1979 130.694 60.0776 120.235 58.8098 122.295C58.3344 123.088 59.4438 127.049 59.4438 127.842C59.9192 130.853 60.3946 133.864 60.87 137.033C61.9793 144.322 63.247 151.612 64.3563 159.06C69.9027 191.863 77.1922 224.191 81.7878 257.152C85.7496 284.251 88.4436 311.349 90.9791 338.764Z" fill="#5C975A"/>
<path d="M87.0191 93.2951C87.8115 101.852 88.2868 110.41 88.9207 118.967C91.6147 157.317 93.041 195.825 92.5656 234.333C92.0901 265.709 91.2977 306.119 92.0901 338.764H94.7842C94.7842 332.742 94.7841 325.769 94.9426 323.234C95.418 313.726 95.735 300.573 96.3688 291.064C97.9535 269.671 99.6967 248.119 101.123 226.726C103.5 189.486 105.56 151.929 98.112 115.164C96.5273 107.082 94.6256 98.8416 92.0901 90.9181C90.8223 87.1148 89.5546 83.3116 88.1283 79.6668C87.8114 78.716 86.7022 74.4373 85.5929 75.8636C84.959 76.6559 85.9099 80.7761 85.9099 81.8854C86.2269 85.6886 86.7022 89.3334 87.0191 93.2951Z" fill="#74A773"/>
<path d="M96.6864 244.633C94.1509 225.775 95.7357 206.442 98.5881 187.584C100.331 176.491 102.233 165.557 105.878 154.939C109.364 144.797 114.435 135.923 119.823 126.89C122.041 123.246 124.102 119.759 126.32 116.115C126.954 115.005 130.282 107.24 131.233 107.24C134.877 106.765 130.757 125.306 129.965 128C127.112 138.142 122.834 147.65 118.08 156.683C113.009 166.666 109.681 176.491 106.828 187.426C103.976 198.677 101.44 209.928 99.6973 221.338C98.905 226.409 98.4296 231.638 97.9542 236.868C97.7957 238.611 98.2712 241.305 97.7958 243.048C98.1127 242.097 97.1618 247.802 96.6864 244.633Z" fill="#74A773"/>
<path d="M97.1607 338.763C98.27 327.829 99.6961 313.091 100.647 308.02C103.341 293.283 106.352 278.703 109.838 264.124C115.543 240.829 124.417 218.327 133.292 196.458C135.669 190.753 137.887 185.048 140.423 179.343C141.057 177.917 145.335 169.994 142.958 170.152C141.691 170.152 138.68 174.272 137.57 175.223C135.51 177.283 133.608 179.502 131.707 181.879C128.062 186.316 124.734 191.07 121.882 196.141C109.521 217.376 104.609 241.78 100.489 266.343C96.8437 287.895 94.6252 315.627 93.3574 338.922H97.1607V338.763Z" fill="#5C975A"/>
<path d="M199.373 151.771C196.837 151.612 192.559 154.148 190.34 155.098C187.329 156.525 184.318 157.951 181.466 159.694C175.919 162.863 170.69 166.825 165.777 170.945C141.69 191.546 127.586 221.972 116.018 252.398C106.986 276.01 96.5265 310.715 95.8926 338.605H98.5867C98.5867 336.862 98.428 335.595 98.428 335.436C98.5865 331.791 99.2204 328.305 99.8543 324.66C101.439 315.944 103.658 307.387 106.351 299.147C111.898 281.874 118.871 265.076 126.636 248.912C140.264 219.912 158.805 193.923 180.198 171.421C185.428 166.033 190.974 160.962 196.679 156.049C198.739 154.465 203.176 152.087 199.373 151.771Z" fill="#5C975A"/>
<path d="M200.009 234.174C198.424 231.797 188.916 233.065 186.697 233.223C182.735 233.699 178.774 234.65 174.97 235.917C153.736 243.365 137.73 261.906 124.26 280.764C113.484 295.66 101.916 318.48 97.1621 338.764H100.331C101.124 335.436 101.916 332.267 102.233 331.157C104.61 325.294 107.463 319.589 110.632 314.201C117.129 303.267 124.736 293.125 133.134 283.775C147.555 267.611 165.462 253.349 183.528 242.89C187.489 240.671 191.451 238.611 195.73 236.868C197.156 236.393 201.276 235.917 200.009 234.174Z" fill="#74A773"/>
<path d="M108.637 307.01C108.637 307.01 130.031 295.181 146.077 272.449C162.124 249.717 176.215 229.762 176.215 229.762C176.215 229.762 162.535 263.294 148.649 283.146C134.866 302.895 118.203 313.387 115.734 314.21C113.265 315.033 106.477 314.21 106.477 314.21L108.637 307.01Z" fill="#599948"/>
<path d="M67.5957 231.82C67.5957 231.82 69.7558 263.397 70.6815 276.666C71.6072 289.935 79.6303 308.964 79.6303 308.964L87.9619 303.821C87.9619 303.821 80.5561 274.609 76.5446 261.649C72.533 248.791 67.5957 231.82 67.5957 231.82Z" fill="#79A85A"/>
<path d="M14.418 204.665C14.418 204.665 37.9728 234.185 55.4589 264.323C72.945 294.358 83.6423 317.296 83.6423 317.296L96.0884 317.81C96.0884 317.81 88.0654 289.215 63.2762 252.597C48.5673 230.585 14.418 204.665 14.418 204.665Z" fill="#599948"/>
<path d="M68.418 185.224C68.418 185.224 73.9724 221.43 77.6753 246.94C81.3783 272.449 80.8639 315.033 80.8639 315.033L97.9386 317.295C97.9386 317.295 96.0871 295.592 89.1955 259.694C81.8925 222.253 68.418 185.224 68.418 185.224Z" fill="#599948"/>
<path d="M121.186 180.39C121.186 180.39 112.443 217.831 103.391 246.117C94.4425 274.403 76.8535 307.524 76.8535 307.524L100.82 314.621C100.82 314.621 110.077 279.443 115.117 248.071C118.409 228.837 121.186 180.39 121.186 180.39Z" fill="#578F58"/>
<path d="M96.5 316.473L162.022 180.904C162.022 180.904 140.832 251.98 130.958 275.329C121.083 298.678 113.678 312.667 113.678 312.667L96.5 316.473Z" fill="#79A85A"/>
<path d="M67.2875 305.261C67.2875 305.261 47.0241 307.935 30.6695 315.753C14.3148 323.57 8.55469 335.502 8.55469 335.502C8.55469 335.502 23.9836 325.01 41.4697 319.147C58.9558 313.387 68.8304 311.021 68.8304 311.021L67.2875 305.261Z" fill="#599948"/>
<path d="M85.1855 319.867C85.1855 319.867 90.7401 334.782 93.5173 349.388C96.2945 363.994 98.4544 384.771 98.4544 384.771C98.4544 384.771 100.615 361.319 102.466 344.965C104.317 328.61 107.403 317.399 107.403 317.399L86.2141 314.004L85.1855 319.867Z" fill="#599948"/>
<path d="M103.904 329.33C103.904 329.33 120.568 337.456 130.031 344.965C139.597 352.474 148.442 366.36 148.442 366.36C148.442 366.36 145.665 348.051 133.631 335.81C121.596 323.57 106.887 316.061 106.887 316.061L103.904 329.33Z" fill="#578F58"/>
<path d="M111.619 314.107C111.619 314.107 130.956 310.712 148.854 305.569C166.649 300.426 181.46 292.301 181.46 292.301C181.46 292.301 170.969 306.907 150.397 314.415C129.825 321.924 113.162 323.57 113.162 323.57L92.8983 316.473L91.6641 312.77L111.619 314.107Z" fill="#79A85A"/>
<path d="M88.2697 292.815C88.2697 292.815 122.933 218.448 128.385 212.893C133.836 207.339 135.997 206.413 140.934 215.774C145.871 225.134 152.968 250.334 155.437 257.843C157.906 265.455 157.391 271.523 157.391 271.523C157.391 271.523 149.265 249.717 143.711 240.974C138.157 232.231 133.631 228.631 133.631 228.631C133.631 228.631 117.996 270.803 111.002 286.541C104.007 302.278 94.5442 315.753 94.5442 315.753L80.6582 308.038L88.2697 292.815Z" fill="#599948"/>
<path d="M67.9043 300.427L38.6922 258.666C38.6922 258.666 33.1377 262.369 22.9546 273.581C12.7716 284.792 3 293.947 3 293.947C3 293.947 16.2688 265.043 23.8804 253.831C31.5949 242.62 34.3721 239.225 44.4523 244.266C54.5325 249.306 80.7617 304.438 80.7617 304.438L67.9043 300.427Z" fill="#79A85A"/>
<path d="M94.7497 310.61C94.7497 310.61 108.944 309.478 125.813 303.41C142.682 297.341 151.014 293.124 151.014 293.124C151.014 293.124 134.762 311.433 116.864 317.193C98.864 322.953 89.5039 322.85 89.5039 322.85L88.8867 310.713H94.7497V310.61Z" fill="#578F58"/>
<path d="M84.4652 305.364C83.5395 305.261 70.8877 294.667 48.1558 293.124C25.4238 291.581 12.5664 297.341 12.5664 297.341C12.5664 297.341 38.0756 299.192 51.4473 301.352C64.8191 303.512 80.1452 315.033 80.1452 315.033L84.4652 305.364Z" fill="#578F58"/>
<path d="M75.9264 306.907C75.9264 306.907 68.5205 315.033 62.0404 330.05C55.5602 344.965 50.9316 370.165 50.9316 370.165C50.9316 370.165 63.2748 347.022 72.4293 333.753C81.6867 320.484 91.7668 314.004 91.7668 314.004C91.7668 314.004 83.6409 301.455 75.9264 306.907Z" fill="#79A85A"/>
<path d="M104.317 325.936C104.317 325.936 113.266 324.907 136.924 330.05C160.581 335.193 177.244 341.571 177.244 341.571C177.244 341.571 162.433 324.907 134.764 318.839C107.094 312.77 92.7969 314.21 92.7969 314.21L104.317 325.936Z" fill="#599948"/>
<path d="M88.8886 321.924C88.8886 321.924 98.4544 324.599 107.3 340.953C116.249 357.308 128.181 385.8 128.181 385.8C128.181 385.8 128.489 356.897 116.763 336.839C105.038 316.781 90.9458 310.301 90.9458 310.301C90.9458 310.301 87.5513 309.993 86.6256 315.444C85.6999 320.896 88.8886 321.924 88.8886 321.924Z" fill="#79A85A"/>
<path d="M84.9807 312.461C84.9807 312.461 75.3119 306.289 62.4545 315.65C49.4942 325.01 24.3965 350.519 24.3965 350.519C24.3965 350.519 41.9855 320.587 54.9458 309.17C67.9061 297.752 73.0491 301.661 78.192 304.335C83.335 307.009 84.9807 312.461 84.9807 312.461Z" fill="#79A85A"/>
<path d="M44.8633 179.155C44.8633 179.155 44.5547 215.156 51.652 245.088C58.7493 275.02 73.8696 304.027 76.9554 307.627C82.5098 314.004 85.8014 315.033 88.5786 314.415C91.3558 313.695 71.2981 278.106 63.5837 250.231C55.9721 222.356 44.8633 179.155 44.8633 179.155Z" fill="#578F58"/>
<path d="M57.3098 322.13C50.624 329.742 46.0981 339.41 42.498 349.285C47.9496 342.187 54.4298 336.119 61.1157 330.359C73.5617 319.353 86.9334 315.547 92.1792 314.415C91.4592 314.415 84.4647 309.375 82.6132 308.861C80.1446 308.141 76.6474 309.581 74.3845 310.301C67.8015 312.461 62.0414 316.781 57.3098 322.13Z" fill="#599948"/>
<path d="M117.687 288.083C126.224 281.5 133.836 273.477 140.625 264.734C130.236 285.821 116.658 305.775 96.0865 314.313C94.0293 307.627 94.4408 303.718 95.6751 301.147C102.875 298.164 109.561 294.358 117.687 288.083Z" fill="#578F58"/>
<path d="M95.4723 134C95.4723 134 93.0037 190.367 91.1523 223.076C89.3008 255.683 82.6149 309.581 82.6149 309.581C82.6149 309.581 79.1177 318.633 88.9923 316.473C94.7524 315.238 97.6325 313.387 97.6325 313.387C97.6325 313.387 104.421 274.3 100.41 232.128C96.3981 190.058 95.4723 134 95.4723 134Z" fill="#79A85A"/>
<path d="M81.9972 309.375C81.9972 309.375 76.0314 326.244 73.6656 341.468C70.9913 358.645 71.6084 374.588 71.6084 374.588C71.6084 374.588 80.8657 345.273 85.1858 335.296C89.8145 324.804 97.7348 313.284 97.7348 313.284C97.7348 313.284 88.7859 314.518 81.9972 309.375Z" fill="#578F58"/>
</svg>
